<svg width="1280" height="832" viewBox="0 0 1280 832" fill="none" xmlns="http://www.w3.org/2000/svg">
<g clip-path="url(#clip0_54_2)">
<rect width="1280" height="832" fill="white"/>
<rect width="1280" height="832" fill="#FEFFF4"/>
<path d="M245.25 407.625C246.667 408.125 247.375 408.792 247.375 409.625C247.375 410.625 246.625 411.083 245.125 411C243.958 410.917 242.083 410.833 239.5 410.75C236.917 410.667 234.083 410.625 231 410.625C228.083 410.625 225.958 410.667 224.625 410.75C223.292 410.833 222.125 410.917 221.125 411C219.625 411.167 218.875 410.708 218.875 409.625C218.875 409.208 219.042 408.875 219.375 408.625C219.708 408.375 220.083 407.958 220.5 407.375C221.083 406.708 221.208 405.792 220.875 404.625C220.542 403.458 220.083 401.833 219.5 399.75L212.5 378.5C211.5 378.583 210.5 378.625 209.5 378.625C208.583 378.625 207.667 378.625 206.75 378.625H196.5V399.75C196.5 401.917 196.625 403.667 196.875 405C197.208 406.333 197.958 407.208 199.125 407.625C199.792 407.958 200.333 408.25 200.75 408.5C201.167 408.75 201.375 409.125 201.375 409.625C201.375 410.625 200.583 411.083 199 411C197.833 410.917 196.167 410.833 194 410.75C191.917 410.667 189.375 410.625 186.375 410.625C183.292 410.625 180.708 410.667 178.625 410.75C176.542 410.833 174.917 410.917 173.75 411C172.167 411.083 171.375 410.625 171.375 409.625C171.375 408.958 172 408.333 173.25 407.75C173.333 407.667 173.417 407.625 173.5 407.625C173.583 407.625 173.667 407.583 173.75 407.5C174.917 406.917 175.625 405.958 175.875 404.625C176.125 403.208 176.25 401.25 176.25 398.75V332.625C176.25 329.958 176.125 328 175.875 326.75C175.625 325.417 174.917 324.458 173.75 323.875C173.083 323.542 172.5 323.25 172 323C171.583 322.667 171.375 322.292 171.375 321.875C171.375 321.042 171.833 320.583 172.75 320.5L172.625 320.375H202.25C207.75 320.375 213.125 320.792 218.375 321.625C223.625 322.458 228.292 323.958 232.375 326.125C236.542 328.292 239.875 331.292 242.375 335.125C244.875 338.875 246.125 343.75 246.125 349.75C246.125 353.583 245.667 356.958 244.75 359.875C243.917 362.708 242.708 365.208 241.125 367.375C239.542 369.458 237.667 371.208 235.5 372.625C233.417 373.958 231.167 375.042 228.75 375.875L238.375 399.75C239.375 402.333 240.375 404.208 241.375 405.375C242.458 406.458 243.75 407.208 245.25 407.625ZM196.5 373.5H206.75C212.5 373.5 217.042 371.583 220.375 367.75C223.708 363.833 225.375 357.833 225.375 349.75C225.375 333.583 217.667 325.5 202.25 325.5H196.5V373.5ZM319.351 407.125C319.851 407.625 320.351 408 320.851 408.25C321.351 408.5 321.601 408.875 321.601 409.375C321.601 410.458 320.767 411 319.101 411H317.726C316.226 411 314.517 410.958 312.601 410.875C310.684 410.792 308.851 410.417 307.101 409.75C305.351 409.083 303.767 408 302.351 406.5C300.934 404.917 299.934 402.667 299.351 399.75C297.267 404 294.101 407.208 289.851 409.375C285.684 411.542 281.226 412.625 276.476 412.625C272.892 412.625 269.726 412.167 266.976 411.25C264.309 410.417 262.059 409.208 260.226 407.625C258.476 406.042 257.101 404.208 256.101 402.125C255.184 400.042 254.684 397.792 254.601 395.375C254.517 391.042 255.309 387.458 256.976 384.625C258.726 381.708 260.976 379.292 263.726 377.375C266.559 375.458 269.684 373.958 273.101 372.875C276.601 371.708 280.017 370.708 283.351 369.875C286.684 369.042 289.726 368.25 292.476 367.5C295.309 366.667 297.476 365.667 298.976 364.5V362.5C298.976 359.167 298.851 356.208 298.601 353.625C298.351 350.958 297.809 348.75 296.976 347C296.226 345.167 295.142 343.792 293.726 342.875C292.309 341.875 290.476 341.375 288.226 341.375C285.476 341.375 283.392 341.917 281.976 343C280.642 344 279.642 345.292 278.976 346.875C278.392 348.375 277.976 350 277.726 351.75C277.476 353.5 277.059 355.125 276.476 356.625C275.976 358.125 275.101 359.375 273.851 360.375C272.684 361.292 270.851 361.667 268.351 361.5C266.517 361.417 264.976 360.792 263.726 359.625C262.559 358.375 261.809 356.917 261.476 355.25C261.226 353.5 261.476 351.625 262.226 349.625C263.059 347.625 264.517 345.792 266.601 344.125C268.684 342.375 271.476 340.958 274.976 339.875C278.559 338.708 282.976 338.125 288.226 338.125C297.809 338.125 305.101 340.167 310.101 344.25C315.101 348.333 317.601 355 317.601 364.25C317.601 365.25 317.601 367.25 317.601 370.25C317.684 373.25 317.726 376.5 317.726 380C317.726 383.5 317.726 386.917 317.726 390.25C317.809 393.583 317.851 396.167 317.851 398C317.851 399.75 317.892 401.5 317.976 403.25C318.142 405 318.601 406.292 319.351 407.125ZM284.851 401.875C287.101 401.875 289.059 401.5 290.726 400.75C292.476 400 293.934 399 295.101 397.75C296.351 396.5 297.267 395.083 297.851 393.5C298.517 391.917 298.851 390.333 298.851 388.75L298.976 370.5C297.392 371.583 295.101 372.667 292.101 373.75C289.184 374.833 286.309 376.167 283.476 377.75C280.726 379.333 278.351 381.292 276.351 383.625C274.351 385.958 273.476 388.958 273.726 392.625C273.892 395.708 275.059 398.042 277.226 399.625C279.392 401.208 281.934 401.958 284.851 401.875ZM403.938 406.625C404.605 406.958 405.147 407.25 405.563 407.5C405.98 407.75 406.188 408.125 406.188 408.625C406.188 409.542 405.397 410 403.813 410C402.647 410 401.188 410.042 399.438 410.125C397.688 410.208 395.855 410.333 393.938 410.5C392.105 410.583 390.313 410.667 388.563 410.75C386.897 410.833 385.563 410.958 384.563 411.125C383.063 411.375 382.313 410.667 382.313 409V399.5C380.23 403.417 377.355 406.583 373.688 409C370.105 411.417 365.522 412.625 359.938 412.625C355.105 412.625 350.73 411.708 346.813 409.875C342.98 407.958 339.73 405.25 337.063 401.75C334.397 398.25 332.355 394.042 330.938 389.125C329.522 384.125 328.897 378.5 329.063 372.25C329.23 366.5 330.272 361.417 332.188 357C334.105 352.5 336.647 348.792 339.813 345.875C343.063 342.958 346.813 340.875 351.063 339.625C355.397 338.292 360.063 337.917 365.063 338.5C369.397 339 372.938 340.292 375.688 342.375C378.438 344.458 380.647 347 382.313 350V337.625C382.313 335.458 382.147 333.75 381.813 332.5C381.563 331.167 380.855 330.25 379.688 329.75C379.022 329.5 378.48 329.25 378.063 329C377.647 328.667 377.438 328.208 377.438 327.625C377.438 326.708 378.147 326 379.563 325.5C380.48 325.333 381.647 325.083 383.063 324.75C384.48 324.417 386.063 324 387.813 323.5C389.563 323 391.397 322.375 393.313 321.625C395.23 320.875 397.105 320.042 398.938 319.125C399.605 318.792 400.147 318.75 400.563 319C400.98 319.25 401.188 319.708 401.188 320.375V398.875C401.188 401.125 401.355 402.875 401.688 404.125C402.022 405.375 402.772 406.208 403.938 406.625ZM366.688 404.625C371.438 404.458 375.188 402.083 377.938 397.5C380.772 392.917 382.313 386.208 382.563 377.375V371.625C382.313 362.292 380.522 355.375 377.188 350.875C373.855 346.375 369.563 344.25 364.313 344.5C361.73 344.583 359.438 345.5 357.438 347.25C355.438 348.917 353.772 351.167 352.438 354C351.105 356.833 350.105 360.167 349.438 364C348.772 367.833 348.48 371.917 348.563 376.25C348.647 381 349.188 385.167 350.188 388.75C351.188 392.333 352.48 395.333 354.063 397.75C355.73 400.083 357.647 401.833 359.813 403C361.98 404.167 364.272 404.708 366.688 404.625ZM429.533 334.125C426.033 334.125 423.075 333.167 420.658 331.25C418.325 329.25 417.158 326.833 417.158 324C417.158 321.083 418.325 318.667 420.658 316.75C423.075 314.75 426.033 313.75 429.533 313.75C432.95 313.75 435.867 314.75 438.283 316.75C440.7 318.667 441.908 321.083 441.908 324C441.908 326.833 440.7 329.25 438.283 331.25C435.867 333.167 432.95 334.125 429.533 334.125ZM442.533 407.625C443.2 407.958 443.742 408.25 444.158 408.5C444.575 408.75 444.783 409.125 444.783 409.625C444.783 410.625 443.992 411.083 442.408 411C441.242 410.917 439.7 410.833 437.783 410.75C435.867 410.667 433.408 410.625 430.408 410.625C427.492 410.625 425.033 410.667 423.033 410.75C421.033 410.833 419.492 410.917 418.408 411C416.825 411.083 416.033 410.625 416.033 409.625C416.033 409.125 416.242 408.75 416.658 408.5C417.075 408.25 417.617 407.958 418.283 407.625C419.45 407.208 420.158 406.333 420.408 405C420.742 403.667 420.908 401.917 420.908 399.75V358.25C420.908 356.083 420.742 354.375 420.408 353.125C420.158 351.792 419.45 350.875 418.283 350.375C417.617 350.125 417.075 349.875 416.658 349.625C416.242 349.292 416.033 348.833 416.033 348.25C416.033 347.333 416.783 346.625 418.283 346.125C419.117 345.958 420.242 345.708 421.658 345.375C423.075 345.042 424.658 344.625 426.408 344.125C428.158 343.625 429.992 343 431.908 342.25C433.825 341.5 435.7 340.667 437.533 339.75C438.2 339.417 438.742 339.375 439.158 339.625C439.658 339.875 439.908 340.333 439.908 341V399.75C439.908 401.917 440.033 403.667 440.283 405C440.617 406.333 441.367 407.208 442.533 407.625ZM518.447 407.125C518.947 407.625 519.447 408 519.947 408.25C520.447 408.5 520.697 408.875 520.697 409.375C520.697 410.458 519.864 411 518.197 411H516.822C515.322 411 513.614 410.958 511.697 410.875C509.781 410.792 507.947 410.417 506.197 409.75C504.447 409.083 502.864 408 501.447 406.5C500.031 404.917 499.031 402.667 498.447 399.75C496.364 404 493.197 407.208 488.947 409.375C484.781 411.542 480.322 412.625 475.572 412.625C471.989 412.625 468.822 412.167 466.072 411.25C463.406 410.417 461.156 409.208 459.322 407.625C457.572 406.042 456.197 404.208 455.197 402.125C454.281 400.042 453.781 397.792 453.697 395.375C453.614 391.042 454.406 387.458 456.072 384.625C457.822 381.708 460.072 379.292 462.822 377.375C465.656 375.458 468.781 373.958 472.197 372.875C475.697 371.708 479.114 370.708 482.447 369.875C485.781 369.042 488.822 368.25 491.572 367.5C494.406 366.667 496.572 365.667 498.072 364.5V362.5C498.072 359.167 497.947 356.208 497.697 353.625C497.447 350.958 496.906 348.75 496.072 347C495.322 345.167 494.239 343.792 492.822 342.875C491.406 341.875 489.572 341.375 487.322 341.375C484.572 341.375 482.489 341.917 481.072 343C479.739 344 478.739 345.292 478.072 346.875C477.489 348.375 477.072 350 476.822 351.75C476.572 353.5 476.156 355.125 475.572 356.625C475.072 358.125 474.197 359.375 472.947 360.375C471.781 361.292 469.947 361.667 467.447 361.5C465.614 361.417 464.072 360.792 462.822 359.625C461.656 358.375 460.906 356.917 460.572 355.25C460.322 353.5 460.572 351.625 461.322 349.625C462.156 347.625 463.614 345.792 465.697 344.125C467.781 342.375 470.572 340.958 474.072 339.875C477.656 338.708 482.072 338.125 487.322 338.125C496.906 338.125 504.197 340.167 509.197 344.25C514.197 348.333 516.697 355 516.697 364.25C516.697 365.25 516.697 367.25 516.697 370.25C516.781 373.25 516.822 376.5 516.822 380C516.822 383.5 516.822 386.917 516.822 390.25C516.906 393.583 516.947 396.167 516.947 398C516.947 399.75 516.989 401.5 517.072 403.25C517.239 405 517.697 406.292 518.447 407.125ZM483.947 401.875C486.197 401.875 488.156 401.5 489.822 400.75C491.572 400 493.031 399 494.197 397.75C495.447 396.5 496.364 395.083 496.947 393.5C497.614 391.917 497.947 390.333 497.947 388.75L498.072 370.5C496.489 371.583 494.197 372.667 491.197 373.75C488.281 374.833 485.406 376.167 482.572 377.75C479.822 379.333 477.447 381.292 475.447 383.625C473.447 385.958 472.572 388.958 472.822 392.625C472.989 395.708 474.156 398.042 476.322 399.625C478.489 401.208 481.031 401.958 483.947 401.875ZM604.41 407.625C605.077 407.958 605.618 408.25 606.035 408.5C606.452 408.75 606.66 409.125 606.66 409.625C606.66 410.625 605.868 411.083 604.285 411C603.202 410.917 601.66 410.833 599.66 410.75C597.66 410.667 595.202 410.625 592.285 410.625C589.368 410.625 586.91 410.667 584.91 410.75C582.91 410.833 581.368 410.917 580.285 411C578.702 411.083 577.91 410.625 577.91 409.625C577.91 409.125 578.118 408.75 578.535 408.5C578.952 408.25 579.493 407.958 580.16 407.625C581.327 407.208 582.035 406.333 582.285 405C582.618 403.667 582.785 401.917 582.785 399.75V367.875C582.785 364.958 582.577 362.25 582.16 359.75C581.743 357.25 580.993 355.083 579.91 353.25C578.827 351.333 577.368 349.875 575.535 348.875C573.785 347.792 571.577 347.25 568.91 347.25C566.16 347.25 563.785 347.875 561.785 349.125C559.868 350.292 558.285 351.833 557.035 353.75C555.785 355.583 554.868 357.708 554.285 360.125C553.702 362.458 553.41 364.833 553.41 367.25V399.75C553.41 401.917 553.577 403.667 553.91 405C554.243 406.333 554.993 407.208 556.16 407.625C556.827 407.958 557.327 408.25 557.66 408.5C558.077 408.75 558.285 409.125 558.285 409.625C558.285 410.625 557.493 411.083 555.91 411C554.91 410.917 553.41 410.833 551.41 410.75C549.41 410.667 546.952 410.625 544.035 410.625C541.035 410.625 538.535 410.667 536.535 410.75C534.618 410.833 533.118 410.917 532.035 411C530.452 411.083 529.66 410.625 529.66 409.625C529.66 409.125 529.827 408.75 530.16 408.5C530.577 408.25 531.118 407.958 531.785 407.625C532.952 407.208 533.702 406.333 534.035 405C534.368 403.667 534.535 401.917 534.535 399.75V358.125C534.535 355.958 534.368 354.25 534.035 353C533.702 351.667 532.952 350.75 531.785 350.25C531.118 350 530.577 349.75 530.16 349.5C529.743 349.167 529.535 348.708 529.535 348.125C529.535 347.208 530.118 346.625 531.285 346.375C533.118 345.958 535.702 345.25 539.035 344.25C542.368 343.25 545.993 341.75 549.91 339.75C551.327 339 552.118 339.417 552.285 341L553.16 351.125L553.285 352.375C554.118 350.625 555.16 348.917 556.41 347.25C557.66 345.5 559.202 343.958 561.035 342.625C562.868 341.292 564.993 340.208 567.41 339.375C569.91 338.542 572.785 338.125 576.035 338.125C585.118 338.125 591.66 340.583 595.66 345.5C599.743 350.333 601.785 357.792 601.785 367.875V399.75C601.785 401.917 601.91 403.667 602.16 405C602.493 406.333 603.243 407.208 604.41 407.625ZM649.604 403.25C650.27 403.833 650.229 404.75 649.479 406C648.145 407.75 646.395 409.25 644.229 410.5C642.145 411.75 639.145 412.375 635.229 412.375C629.729 412.375 625.645 411.042 622.979 408.375C620.312 405.708 618.979 401.542 618.979 395.875V344.875H614.604C613.77 344.875 613.229 344.667 612.979 344.25C612.729 343.833 612.604 343.167 612.604 342.25C612.604 341.333 612.729 340.708 612.979 340.375C613.229 339.958 613.77 339.75 614.604 339.75H616.229C618.145 339.75 619.979 339.375 621.729 338.625C623.562 337.875 625.229 336.875 626.729 335.625C628.312 334.375 629.687 332.917 630.854 331.25C632.02 329.5 632.895 327.708 633.479 325.875C633.895 324.792 634.645 324.25 635.729 324.25C636.312 324.25 636.812 324.375 637.229 324.625C637.645 324.875 637.854 325.417 637.854 326.25V339.75H647.854C649.104 339.75 649.729 340.583 649.729 342.25C649.729 344 649.104 344.875 647.854 344.875H637.854V396.75C637.854 401.583 639.145 404.25 641.729 404.75C642.895 404.917 643.895 404.833 644.729 404.5C645.562 404.083 646.27 403.792 646.854 403.625C648.187 402.875 649.104 402.75 649.604 403.25Z" fill="#201E44"/>
<path d="M742.32 279.808C743.328 282.664 742.992 285.688 741.312 288.88C739.632 292.072 736.272 294.256 731.232 295.432C728.88 295.936 726.444 296.104 723.924 295.936C721.404 295.768 718.716 295.684 715.86 295.684C713.004 295.516 709.98 295.516 706.788 295.684C703.596 295.684 700.152 296.188 696.456 297.196C698.976 300.052 701.496 302.488 704.016 304.504C706.536 306.352 708.972 308.032 711.324 309.544C713.676 311.056 715.86 312.484 717.876 313.828C720.06 315.004 721.908 316.516 723.42 318.364C726.948 322.228 728.46 326.008 727.956 329.704C727.452 333.232 725.94 335.92 723.42 337.768C720.9 339.616 717.876 340.204 714.348 339.532C710.82 338.86 707.712 336.34 705.024 331.972C703.848 329.956 702.924 327.772 702.252 325.42C701.58 322.9 700.824 320.296 699.984 317.608C699.312 314.92 698.472 312.148 697.464 309.292C696.456 306.268 694.944 303.16 692.928 299.968C690.912 303.16 689.4 306.268 688.392 309.292C687.384 312.148 686.46 314.92 685.62 317.608C684.948 320.296 684.276 322.9 683.604 325.42C683.1 327.772 682.176 329.956 680.832 331.972C678.144 336.676 675.036 339.28 671.508 339.784C668.148 340.288 665.124 339.616 662.436 337.768C659.916 335.92 658.404 333.232 657.9 329.704C657.396 326.176 658.908 322.48 662.436 318.616C663.948 316.768 665.712 315.172 667.728 313.828C669.912 312.484 672.18 311.056 674.532 309.544C676.884 308.032 679.32 306.352 681.84 304.504C684.36 302.488 686.796 299.968 689.148 296.944C685.452 296.104 682.008 295.684 678.816 295.684C675.792 295.516 672.852 295.516 669.996 295.684C667.308 295.852 664.704 296.02 662.184 296.188C659.664 296.356 657.228 296.188 654.876 295.684C649.668 294.508 646.224 292.324 644.544 289.132C643.032 285.94 642.78 282.832 643.788 279.808C644.628 276.952 646.644 274.768 649.836 273.256C653.196 271.576 657.228 271.828 661.932 274.012C664.116 275.02 666.132 276.28 667.98 277.792C669.996 279.304 672.096 280.984 674.28 282.832C676.464 284.512 678.816 286.276 681.336 288.124C684.024 289.972 687.132 291.568 690.66 292.912C690.492 289.048 689.904 285.604 688.896 282.58C688.056 279.556 687.132 276.7 686.124 274.012C685.116 271.324 684.108 268.804 683.1 266.452C682.26 264.1 681.756 261.748 681.588 259.396C680.916 254.188 681.84 250.324 684.36 247.804C686.88 245.284 689.736 244.024 692.928 244.024C696.12 244.024 698.976 245.368 701.496 248.056C704.016 250.576 704.94 254.356 704.268 259.396C704.1 261.916 703.512 264.352 702.504 266.704C701.664 269.056 700.656 271.576 699.48 274.264C698.472 276.784 697.548 279.556 696.708 282.58C695.868 285.604 695.28 289.048 694.944 292.912C698.64 291.4 701.748 289.804 704.268 288.124C706.956 286.276 709.392 284.428 711.576 282.58C713.76 280.732 715.776 279.052 717.624 277.54C719.64 276.028 721.74 274.768 723.924 273.76C728.796 271.576 732.828 271.324 736.02 273.004C739.212 274.516 741.312 276.784 742.32 279.808Z" fill="#FF8A00"/>
<path d="M181.088 558.182C180.964 557.138 180.463 556.328 179.585 555.751C178.706 555.175 177.628 554.886 176.351 554.886C175.417 554.886 174.6 555.037 173.9 555.339C173.206 555.642 172.664 556.057 172.273 556.586C171.888 557.114 171.696 557.715 171.696 558.388C171.696 558.951 171.83 559.435 172.098 559.84C172.372 560.238 172.722 560.571 173.148 560.839C173.574 561.1 174.02 561.316 174.487 561.488C174.954 561.652 175.383 561.786 175.774 561.889L177.916 562.466C178.465 562.61 179.076 562.809 179.749 563.063C180.429 563.317 181.078 563.664 181.696 564.103C182.32 564.536 182.835 565.092 183.24 565.772C183.645 566.451 183.848 567.286 183.848 568.274C183.848 569.414 183.549 570.444 182.952 571.364C182.362 572.284 181.497 573.015 180.357 573.557C179.224 574.1 177.848 574.371 176.227 574.371C174.717 574.371 173.409 574.127 172.304 573.64C171.205 573.152 170.34 572.472 169.708 571.6C169.084 570.729 168.73 569.716 168.648 568.562H171.284C171.353 569.359 171.621 570.018 172.087 570.54C172.561 571.055 173.158 571.439 173.879 571.693C174.607 571.94 175.39 572.064 176.227 572.064C177.202 572.064 178.078 571.906 178.853 571.59C179.629 571.268 180.244 570.821 180.697 570.251C181.15 569.675 181.376 569.002 181.376 568.233C181.376 567.533 181.181 566.963 180.789 566.523C180.398 566.084 179.883 565.727 179.245 565.452C178.606 565.178 177.916 564.937 177.175 564.732L174.58 563.99C172.932 563.516 171.627 562.84 170.666 561.961C169.705 561.083 169.224 559.933 169.224 558.511C169.224 557.33 169.544 556.301 170.182 555.422C170.828 554.536 171.693 553.85 172.777 553.362C173.869 552.868 175.088 552.621 176.433 552.621C177.793 552.621 179.001 552.864 180.058 553.352C181.116 553.833 181.953 554.492 182.571 555.329C183.196 556.167 183.525 557.118 183.56 558.182H181.088ZM194.597 558.182V560.241H186.399V558.182H194.597ZM188.789 554.392H191.219V569.469C191.219 570.155 191.319 570.67 191.518 571.013C191.724 571.35 191.985 571.576 192.3 571.693C192.623 571.803 192.963 571.858 193.32 571.858C193.588 571.858 193.807 571.844 193.979 571.817C194.151 571.782 194.288 571.755 194.391 571.734L194.885 573.918C194.72 573.979 194.49 574.041 194.195 574.103C193.9 574.172 193.526 574.206 193.073 574.206C192.386 574.206 191.713 574.058 191.054 573.763C190.402 573.468 189.86 573.018 189.427 572.414C189.001 571.81 188.789 571.048 188.789 570.128V554.392ZM202.908 574.371C201.905 574.371 200.996 574.182 200.179 573.804C199.362 573.42 198.713 572.867 198.232 572.146C197.752 571.419 197.511 570.54 197.511 569.51C197.511 568.604 197.69 567.869 198.047 567.306C198.404 566.736 198.881 566.29 199.478 565.967C200.076 565.645 200.735 565.404 201.456 565.246C202.183 565.082 202.914 564.951 203.649 564.855C204.61 564.732 205.389 564.639 205.987 564.577C206.591 564.508 207.03 564.395 207.305 564.237C207.586 564.079 207.727 563.805 207.727 563.413V563.331C207.727 562.315 207.449 561.525 206.893 560.962C206.344 560.399 205.51 560.118 204.391 560.118C203.23 560.118 202.321 560.372 201.661 560.88C201.002 561.388 200.539 561.93 200.271 562.507L197.964 561.683C198.376 560.722 198.926 559.974 199.612 559.438C200.306 558.896 201.061 558.518 201.878 558.305C202.702 558.086 203.512 557.976 204.308 557.976C204.816 557.976 205.4 558.038 206.059 558.161C206.725 558.278 207.367 558.522 207.985 558.892C208.609 559.263 209.128 559.823 209.54 560.571C209.952 561.319 210.158 562.322 210.158 563.578V574H207.727V571.858H207.604C207.439 572.201 207.164 572.569 206.78 572.96C206.395 573.351 205.884 573.684 205.245 573.959C204.607 574.233 203.828 574.371 202.908 574.371ZM203.278 572.188C204.239 572.188 205.05 571.999 205.709 571.621C206.375 571.243 206.876 570.756 207.212 570.159C207.556 569.561 207.727 568.933 207.727 568.274V566.05C207.624 566.173 207.398 566.287 207.047 566.39C206.704 566.486 206.306 566.571 205.853 566.647C205.407 566.716 204.971 566.777 204.545 566.832C204.126 566.88 203.786 566.922 203.525 566.956C202.894 567.038 202.303 567.172 201.754 567.358C201.212 567.536 200.772 567.807 200.436 568.171C200.106 568.528 199.942 569.016 199.942 569.634C199.942 570.478 200.254 571.116 200.879 571.549C201.51 571.975 202.31 572.188 203.278 572.188ZM215.593 579.932C215.181 579.932 214.813 579.897 214.491 579.829C214.168 579.767 213.945 579.705 213.821 579.643L214.439 577.501C215.03 577.652 215.551 577.707 216.004 577.666C216.458 577.625 216.859 577.422 217.209 577.059C217.566 576.702 217.892 576.121 218.188 575.318L218.641 574.082L212.791 558.182H215.428L219.794 570.787H219.959L224.325 558.182H226.962L220.247 576.307C219.945 577.124 219.571 577.8 219.125 578.336C218.679 578.878 218.16 579.28 217.57 579.54C216.986 579.801 216.327 579.932 215.593 579.932ZM244.752 574.33C243.269 574.33 241.992 573.979 240.921 573.279C239.85 572.579 239.026 571.614 238.45 570.385C237.873 569.156 237.585 567.752 237.585 566.173C237.585 564.567 237.88 563.149 238.47 561.92C239.067 560.684 239.898 559.72 240.962 559.026C242.033 558.326 243.283 557.976 244.711 557.976C245.823 557.976 246.826 558.182 247.718 558.594C248.611 559.006 249.342 559.582 249.912 560.324C250.481 561.065 250.835 561.93 250.972 562.919H248.542C248.357 562.198 247.945 561.56 247.306 561.004C246.674 560.441 245.823 560.159 244.752 560.159C243.805 560.159 242.974 560.406 242.26 560.901C241.553 561.388 241 562.078 240.602 562.971C240.211 563.856 240.015 564.896 240.015 566.091C240.015 567.313 240.207 568.377 240.592 569.283C240.983 570.19 241.532 570.893 242.239 571.395C242.953 571.896 243.791 572.146 244.752 572.146C245.384 572.146 245.957 572.036 246.472 571.817C246.987 571.597 247.423 571.281 247.78 570.869C248.137 570.457 248.391 569.963 248.542 569.386H250.972C250.835 570.32 250.495 571.161 249.953 571.909C249.417 572.651 248.707 573.241 247.821 573.681C246.942 574.113 245.919 574.33 244.752 574.33ZM260.951 574.33C259.523 574.33 258.27 573.99 257.192 573.31C256.121 572.63 255.284 571.679 254.68 570.457C254.082 569.235 253.784 567.807 253.784 566.173C253.784 564.526 254.082 563.087 254.68 561.858C255.284 560.629 256.121 559.675 257.192 558.995C258.27 558.316 259.523 557.976 260.951 557.976C262.379 557.976 263.629 558.316 264.7 558.995C265.778 559.675 266.615 560.629 267.213 561.858C267.817 563.087 268.119 564.526 268.119 566.173C268.119 567.807 267.817 569.235 267.213 570.457C266.615 571.679 265.778 572.63 264.7 573.31C263.629 573.99 262.379 574.33 260.951 574.33ZM260.951 572.146C262.036 572.146 262.929 571.868 263.629 571.312C264.329 570.756 264.848 570.025 265.184 569.119C265.52 568.212 265.689 567.231 265.689 566.173C265.689 565.116 265.52 564.131 265.184 563.218C264.848 562.305 264.329 561.567 263.629 561.004C262.929 560.441 262.036 560.159 260.951 560.159C259.867 560.159 258.974 560.441 258.274 561.004C257.574 561.567 257.055 562.305 256.719 563.218C256.382 564.131 256.214 565.116 256.214 566.173C256.214 567.231 256.382 568.212 256.719 569.119C257.055 570.025 257.574 570.756 258.274 571.312C258.974 571.868 259.867 572.146 260.951 572.146ZM274.259 564.484V574H271.829V558.182H274.177V560.653H274.383C274.754 559.85 275.317 559.205 276.072 558.717C276.827 558.223 277.802 557.976 278.997 557.976C280.068 557.976 281.005 558.196 281.808 558.635C282.611 559.067 283.236 559.727 283.682 560.612C284.129 561.491 284.352 562.603 284.352 563.949V574H281.921V564.114C281.921 562.871 281.599 561.903 280.953 561.21C280.308 560.509 279.422 560.159 278.296 560.159C277.52 560.159 276.827 560.327 276.216 560.664C275.612 561 275.135 561.491 274.785 562.136C274.434 562.782 274.259 563.564 274.259 564.484ZM291.223 564.484V574H288.793V558.182H291.141V560.653H291.347C291.718 559.85 292.28 559.205 293.036 558.717C293.791 558.223 294.766 557.976 295.96 557.976C297.031 557.976 297.969 558.196 298.772 558.635C299.575 559.067 300.2 559.727 300.646 560.612C301.092 561.491 301.316 562.603 301.316 563.949V574H298.885V564.114C298.885 562.871 298.562 561.903 297.917 561.21C297.272 560.509 296.386 560.159 295.26 560.159C294.484 560.159 293.791 560.327 293.18 560.664C292.576 561 292.099 561.491 291.748 562.136C291.398 562.782 291.223 563.564 291.223 564.484ZM312.389 574.33C310.865 574.33 309.55 573.993 308.445 573.32C307.346 572.641 306.498 571.693 305.901 570.478C305.31 569.256 305.015 567.835 305.015 566.214C305.015 564.594 305.31 563.166 305.901 561.93C306.498 560.688 307.329 559.72 308.393 559.026C309.464 558.326 310.714 557.976 312.142 557.976C312.965 557.976 313.779 558.113 314.582 558.388C315.386 558.662 316.117 559.109 316.776 559.727C317.435 560.338 317.96 561.148 318.351 562.157C318.743 563.166 318.938 564.409 318.938 565.885V566.915H306.745V564.814H316.467C316.467 563.921 316.288 563.125 315.931 562.425C315.581 561.724 315.08 561.172 314.428 560.767C313.782 560.362 313.02 560.159 312.142 560.159C311.174 560.159 310.336 560.399 309.629 560.88C308.929 561.354 308.39 561.972 308.012 562.734C307.634 563.496 307.446 564.313 307.446 565.185V566.585C307.446 567.78 307.652 568.792 308.063 569.623C308.482 570.447 309.062 571.075 309.804 571.508C310.545 571.933 311.407 572.146 312.389 572.146C313.027 572.146 313.604 572.057 314.119 571.879C314.641 571.693 315.09 571.419 315.468 571.055C315.846 570.684 316.137 570.224 316.343 569.675L318.691 570.334C318.444 571.13 318.029 571.83 317.445 572.435C316.862 573.032 316.141 573.499 315.283 573.835C314.424 574.165 313.46 574.33 312.389 574.33ZM329.062 574.33C327.579 574.33 326.302 573.979 325.231 573.279C324.16 572.579 323.336 571.614 322.759 570.385C322.182 569.156 321.894 567.752 321.894 566.173C321.894 564.567 322.189 563.149 322.78 561.92C323.377 560.684 324.208 559.72 325.272 559.026C326.343 558.326 327.592 557.976 329.021 557.976C330.133 557.976 331.135 558.182 332.028 558.594C332.92 559.006 333.651 559.582 334.221 560.324C334.791 561.065 335.145 561.93 335.282 562.919H332.851C332.666 562.198 332.254 561.56 331.616 561.004C330.984 560.441 330.133 560.159 329.062 560.159C328.114 560.159 327.284 560.406 326.57 560.901C325.862 561.388 325.31 562.078 324.911 562.971C324.52 563.856 324.324 564.896 324.324 566.091C324.324 567.313 324.517 568.377 324.901 569.283C325.293 570.19 325.842 570.893 326.549 571.395C327.263 571.896 328.101 572.146 329.062 572.146C329.693 572.146 330.267 572.036 330.782 571.817C331.296 571.597 331.732 571.281 332.089 570.869C332.446 570.457 332.7 569.963 332.851 569.386H335.282C335.145 570.32 334.805 571.161 334.262 571.909C333.727 572.651 333.016 573.241 332.131 573.681C331.252 574.113 330.229 574.33 329.062 574.33ZM345.714 558.182V560.241H337.517V558.182H345.714ZM339.906 554.392H342.336V569.469C342.336 570.155 342.436 570.67 342.635 571.013C342.841 571.35 343.102 571.576 343.418 571.693C343.74 571.803 344.08 571.858 344.437 571.858C344.705 571.858 344.925 571.844 345.096 571.817C345.268 571.782 345.405 571.755 345.508 571.734L346.002 573.918C345.838 573.979 345.608 574.041 345.312 574.103C345.017 574.172 344.643 574.206 344.19 574.206C343.503 574.206 342.831 574.058 342.171 573.763C341.519 573.468 340.977 573.018 340.544 572.414C340.119 571.81 339.906 571.048 339.906 570.128V554.392ZM355.832 574.33C354.308 574.33 352.993 573.993 351.888 573.32C350.789 572.641 349.941 571.693 349.344 570.478C348.754 569.256 348.459 567.835 348.459 566.214C348.459 564.594 348.754 563.166 349.344 561.93C349.941 560.688 350.772 559.72 351.836 559.026C352.907 558.326 354.157 557.976 355.585 557.976C356.409 557.976 357.222 558.113 358.026 558.388C358.829 558.662 359.56 559.109 360.219 559.727C360.878 560.338 361.403 561.148 361.795 562.157C362.186 563.166 362.382 564.409 362.382 565.885V566.915H350.189V564.814H359.91C359.91 563.921 359.732 563.125 359.375 562.425C359.025 561.724 358.523 561.172 357.871 560.767C357.226 560.362 356.464 560.159 355.585 560.159C354.617 560.159 353.779 560.399 353.072 560.88C352.372 561.354 351.833 561.972 351.455 562.734C351.078 563.496 350.889 564.313 350.889 565.185V566.585C350.889 567.78 351.095 568.792 351.507 569.623C351.926 570.447 352.506 571.075 353.247 571.508C353.989 571.933 354.85 572.146 355.832 572.146C356.471 572.146 357.047 572.057 357.562 571.879C358.084 571.693 358.534 571.419 358.911 571.055C359.289 570.684 359.581 570.224 359.787 569.675L362.135 570.334C361.888 571.13 361.472 571.83 360.889 572.435C360.305 573.032 359.584 573.499 358.726 573.835C357.868 574.165 356.903 574.33 355.832 574.33ZM372.052 574.33C370.734 574.33 369.57 573.997 368.561 573.331C367.552 572.658 366.762 571.71 366.192 570.488C365.622 569.259 365.337 567.807 365.337 566.132C365.337 564.471 365.622 563.029 366.192 561.807C366.762 560.585 367.555 559.641 368.571 558.975C369.587 558.309 370.761 557.976 372.093 557.976C373.123 557.976 373.937 558.147 374.534 558.491C375.138 558.827 375.598 559.212 375.914 559.644C376.236 560.07 376.487 560.42 376.666 560.695H376.872V552.909H379.302V574H376.954V571.57H376.666C376.487 571.858 376.233 572.222 375.903 572.661C375.574 573.094 375.104 573.482 374.493 573.825C373.882 574.161 373.068 574.33 372.052 574.33ZM372.381 572.146C373.356 572.146 374.18 571.892 374.853 571.384C375.526 570.869 376.037 570.159 376.388 569.252C376.738 568.339 376.913 567.286 376.913 566.091C376.913 564.91 376.741 563.877 376.398 562.991C376.055 562.099 375.546 561.405 374.874 560.911C374.201 560.41 373.37 560.159 372.381 560.159C371.352 560.159 370.493 560.423 369.807 560.952C369.127 561.474 368.616 562.184 368.272 563.084C367.936 563.976 367.768 564.979 367.768 566.091C367.768 567.217 367.939 568.24 368.283 569.16C368.633 570.073 369.148 570.801 369.828 571.343C370.514 571.879 371.365 572.146 372.381 572.146ZM395.831 574L391.011 558.182H393.565L396.984 570.293H397.149L400.527 558.182H403.122L406.459 570.251H406.623L410.042 558.182H412.596L407.777 574H405.388L401.927 561.848H401.68L398.22 574H395.831ZM415.809 574V558.182H418.24V574H415.809ZM417.045 555.545C416.571 555.545 416.163 555.384 415.82 555.061C415.483 554.739 415.315 554.351 415.315 553.898C415.315 553.445 415.483 553.057 415.82 552.734C416.163 552.411 416.571 552.25 417.045 552.25C417.519 552.25 417.924 552.411 418.26 552.734C418.604 553.057 418.775 553.445 418.775 553.898C418.775 554.351 418.604 554.739 418.26 555.061C417.924 555.384 417.519 555.545 417.045 555.545ZM429.57 558.182V560.241H421.373V558.182H429.57ZM423.762 554.392H426.193V569.469C426.193 570.155 426.292 570.67 426.491 571.013C426.697 571.35 426.958 571.576 427.274 571.693C427.597 571.803 427.936 571.858 428.294 571.858C428.561 571.858 428.781 571.844 428.953 571.817C429.124 571.782 429.262 571.755 429.365 571.734L429.859 573.918C429.694 573.979 429.464 574.041 429.169 574.103C428.874 574.172 428.499 574.206 428.046 574.206C427.36 574.206 426.687 574.058 426.028 573.763C425.376 573.468 424.833 573.018 424.401 572.414C423.975 571.81 423.762 571.048 423.762 570.128V554.392ZM435.997 564.484V574H433.566V552.909H435.997V560.653H436.203C436.573 559.836 437.129 559.188 437.871 558.707C438.619 558.22 439.615 557.976 440.857 557.976C441.935 557.976 442.879 558.192 443.689 558.625C444.5 559.05 445.128 559.706 445.574 560.592C446.027 561.47 446.254 562.589 446.254 563.949V574H443.823V564.114C443.823 562.857 443.497 561.886 442.845 561.199C442.2 560.506 441.304 560.159 440.157 560.159C439.361 560.159 438.647 560.327 438.015 560.664C437.39 561 436.896 561.491 436.532 562.136C436.175 562.782 435.997 563.564 435.997 564.484ZM465.488 574.33C463.964 574.33 462.649 573.993 461.544 573.32C460.446 572.641 459.598 571.693 459 570.478C458.41 569.256 458.115 567.835 458.115 566.214C458.115 564.594 458.41 563.166 459 561.93C459.598 560.688 460.428 559.72 461.493 559.026C462.564 558.326 463.813 557.976 465.241 557.976C466.065 557.976 466.879 558.113 467.682 558.388C468.485 558.662 469.216 559.109 469.875 559.727C470.535 560.338 471.06 561.148 471.451 562.157C471.842 563.166 472.038 564.409 472.038 565.885V566.915H459.845V564.814H469.566C469.566 563.921 469.388 563.125 469.031 562.425C468.681 561.724 468.18 561.172 467.527 560.767C466.882 560.362 466.12 560.159 465.241 560.159C464.273 560.159 463.436 560.399 462.728 560.88C462.028 561.354 461.489 561.972 461.112 562.734C460.734 563.496 460.545 564.313 460.545 565.185V566.585C460.545 567.78 460.751 568.792 461.163 569.623C461.582 570.447 462.162 571.075 462.903 571.508C463.645 571.933 464.507 572.146 465.488 572.146C466.127 572.146 466.704 572.057 467.218 571.879C467.74 571.693 468.19 571.419 468.568 571.055C468.945 570.684 469.237 570.224 469.443 569.675L471.791 570.334C471.544 571.13 471.128 571.83 470.545 572.435C469.961 573.032 469.24 573.499 468.382 573.835C467.524 574.165 466.559 574.33 465.488 574.33ZM488.188 558.182L482.339 574H479.867L474.018 558.182H476.654L481.021 570.787H481.186L485.552 558.182H488.188ZM497.462 574.33C495.938 574.33 494.623 573.993 493.518 573.32C492.419 572.641 491.571 571.693 490.974 570.478C490.384 569.256 490.088 567.835 490.088 566.214C490.088 564.594 490.384 563.166 490.974 561.93C491.571 560.688 492.402 559.72 493.466 559.026C494.537 558.326 495.787 557.976 497.215 557.976C498.039 557.976 498.852 558.113 499.656 558.388C500.459 558.662 501.19 559.109 501.849 559.727C502.508 560.338 503.033 561.148 503.425 562.157C503.816 563.166 504.012 564.409 504.012 565.885V566.915H491.819V564.814H501.54C501.54 563.921 501.362 563.125 501.005 562.425C500.654 561.724 500.153 561.172 499.501 560.767C498.856 560.362 498.094 560.159 497.215 560.159C496.247 560.159 495.409 560.399 494.702 560.88C494.002 561.354 493.463 561.972 493.085 562.734C492.708 563.496 492.519 564.313 492.519 565.185V566.585C492.519 567.78 492.725 568.792 493.137 569.623C493.556 570.447 494.136 571.075 494.877 571.508C495.619 571.933 496.48 572.146 497.462 572.146C498.1 572.146 498.677 572.057 499.192 571.879C499.714 571.693 500.164 571.419 500.541 571.055C500.919 570.684 501.211 570.224 501.417 569.675L503.765 570.334C503.517 571.13 503.102 571.83 502.518 572.435C501.935 573.032 501.214 573.499 500.356 573.835C499.498 574.165 498.533 574.33 497.462 574.33ZM507.709 574V558.182H510.057V560.571H510.222C510.51 559.788 511.032 559.153 511.787 558.666C512.542 558.178 513.393 557.935 514.341 557.935C514.519 557.935 514.743 557.938 515.01 557.945C515.278 557.952 515.481 557.962 515.618 557.976V560.447C515.536 560.427 515.347 560.396 515.051 560.355C514.763 560.307 514.458 560.283 514.135 560.283C513.366 560.283 512.679 560.444 512.075 560.767C511.478 561.083 511.004 561.522 510.654 562.085C510.311 562.641 510.139 563.276 510.139 563.99V574H507.709ZM520.546 579.932C520.134 579.932 519.766 579.897 519.444 579.829C519.121 579.767 518.898 579.705 518.774 579.643L519.392 577.501C519.983 577.652 520.504 577.707 520.958 577.666C521.411 577.625 521.812 577.422 522.162 577.059C522.519 576.702 522.846 576.121 523.141 575.318L523.594 574.082L517.744 558.182H520.381L524.747 570.787H524.912L529.279 558.182H531.915L525.2 576.307C524.898 577.124 524.524 577.8 524.078 578.336C523.632 578.878 523.113 579.28 522.523 579.54C521.939 579.801 521.28 579.932 520.546 579.932ZM540.529 574.33C539.211 574.33 538.048 573.997 537.038 573.331C536.029 572.658 535.24 571.71 534.67 570.488C534.1 569.259 533.815 567.807 533.815 566.132C533.815 564.471 534.1 563.029 534.67 561.807C535.24 560.585 536.033 559.641 537.049 558.975C538.065 558.309 539.239 557.976 540.571 557.976C541.6 557.976 542.414 558.147 543.011 558.491C543.616 558.827 544.076 559.212 544.391 559.644C544.714 560.07 544.965 560.42 545.143 560.695H545.349V552.909H547.779V574H545.431V571.57H545.143C544.965 571.858 544.711 572.222 544.381 572.661C544.051 573.094 543.581 573.482 542.97 573.825C542.359 574.161 541.546 574.33 540.529 574.33ZM540.859 572.146C541.834 572.146 542.658 571.892 543.331 571.384C544.003 570.869 544.515 570.159 544.865 569.252C545.215 568.339 545.39 567.286 545.39 566.091C545.39 564.91 545.219 563.877 544.875 562.991C544.532 562.099 544.024 561.405 543.351 560.911C542.678 560.41 541.848 560.159 540.859 560.159C539.829 560.159 538.971 560.423 538.284 560.952C537.605 561.474 537.093 562.184 536.75 563.084C536.414 563.976 536.245 564.979 536.245 566.091C536.245 567.217 536.417 568.24 536.76 569.16C537.11 570.073 537.625 570.801 538.305 571.343C538.992 571.879 539.843 572.146 540.859 572.146ZM557.223 574.371C556.221 574.371 555.311 574.182 554.494 573.804C553.677 573.42 553.028 572.867 552.548 572.146C552.067 571.419 551.827 570.54 551.827 569.51C551.827 568.604 552.005 567.869 552.362 567.306C552.719 566.736 553.196 566.29 553.794 565.967C554.391 565.645 555.05 565.404 555.771 565.246C556.499 565.082 557.23 564.951 557.964 564.855C558.926 564.732 559.705 564.639 560.302 564.577C560.906 564.508 561.346 564.395 561.62 564.237C561.902 564.079 562.043 563.805 562.043 563.413V563.331C562.043 562.315 561.765 561.525 561.208 560.962C560.659 560.399 559.825 560.118 558.706 560.118C557.546 560.118 556.636 560.372 555.977 560.88C555.318 561.388 554.854 561.93 554.587 562.507L552.28 561.683C552.692 560.722 553.241 559.974 553.928 559.438C554.621 558.896 555.376 558.518 556.193 558.305C557.017 558.086 557.827 557.976 558.624 557.976C559.132 557.976 559.715 558.038 560.374 558.161C561.04 558.278 561.682 558.522 562.3 558.892C562.925 559.263 563.443 559.823 563.855 560.571C564.267 561.319 564.473 562.322 564.473 563.578V574H562.043V571.858H561.919C561.754 572.201 561.48 572.569 561.095 572.96C560.711 573.351 560.199 573.684 559.561 573.959C558.922 574.233 558.143 574.371 557.223 574.371ZM557.594 572.188C558.555 572.188 559.365 571.999 560.024 571.621C560.69 571.243 561.191 570.756 561.528 570.159C561.871 569.561 562.043 568.933 562.043 568.274V566.05C561.94 566.173 561.713 566.287 561.363 566.39C561.02 566.486 560.621 566.571 560.168 566.647C559.722 566.716 559.286 566.777 558.86 566.832C558.442 566.88 558.102 566.922 557.841 566.956C557.209 567.038 556.619 567.172 556.07 567.358C555.527 567.536 555.088 567.807 554.751 568.171C554.422 568.528 554.257 569.016 554.257 569.634C554.257 570.478 554.569 571.116 555.194 571.549C555.826 571.975 556.626 572.188 557.594 572.188ZM569.908 579.932C569.496 579.932 569.129 579.897 568.806 579.829C568.483 579.767 568.26 579.705 568.137 579.643L568.755 577.501C569.345 577.652 569.867 577.707 570.32 577.666C570.773 577.625 571.175 577.422 571.525 577.059C571.882 576.702 572.208 576.121 572.503 575.318L572.956 574.082L567.107 558.182H569.743L574.11 570.787H574.274L578.641 558.182H581.277L574.563 576.307C574.261 577.124 573.887 577.8 573.44 578.336C572.994 578.878 572.476 579.28 571.885 579.54C571.302 579.801 570.643 579.932 569.908 579.932ZM592.971 574V552.909H605.617V555.175H595.525V562.301H604.67V564.567H595.525V574H592.971ZM609.662 574V558.182H612.092V574H609.662ZM610.898 555.545C610.424 555.545 610.016 555.384 609.672 555.061C609.336 554.739 609.168 554.351 609.168 553.898C609.168 553.445 609.336 553.057 609.672 552.734C610.016 552.411 610.424 552.25 610.898 552.25C611.371 552.25 611.777 552.411 612.113 552.734C612.456 553.057 612.628 553.445 612.628 553.898C612.628 554.351 612.456 554.739 612.113 555.061C611.777 555.384 611.371 555.545 610.898 555.545ZM618.974 564.484V574H616.544V558.182H618.892V560.653H619.098C619.468 559.85 620.031 559.205 620.787 558.717C621.542 558.223 622.517 557.976 623.711 557.976C624.782 557.976 625.72 558.196 626.523 558.635C627.326 559.067 627.951 559.727 628.397 560.612C628.843 561.491 629.066 562.603 629.066 563.949V574H626.636V564.114C626.636 562.871 626.313 561.903 625.668 561.21C625.023 560.509 624.137 560.159 623.011 560.159C622.235 560.159 621.542 560.327 620.931 560.664C620.327 561 619.85 561.491 619.499 562.136C619.149 562.782 618.974 563.564 618.974 564.484ZM638.162 574.371C637.16 574.371 636.25 574.182 635.433 573.804C634.616 573.42 633.968 572.867 633.487 572.146C633.006 571.419 632.766 570.54 632.766 569.51C632.766 568.604 632.945 567.869 633.302 567.306C633.659 566.736 634.136 566.29 634.733 565.967C635.33 565.645 635.99 565.404 636.71 565.246C637.438 565.082 638.169 564.951 638.904 564.855C639.865 564.732 640.644 564.639 641.242 564.577C641.846 564.508 642.285 564.395 642.56 564.237C642.841 564.079 642.982 563.805 642.982 563.413V563.331C642.982 562.315 642.704 561.525 642.148 560.962C641.599 560.399 640.765 560.118 639.645 560.118C638.485 560.118 637.575 560.372 636.916 560.88C636.257 561.388 635.794 561.93 635.526 562.507L633.219 561.683C633.631 560.722 634.18 559.974 634.867 559.438C635.56 558.896 636.316 558.518 637.133 558.305C637.956 558.086 638.767 557.976 639.563 557.976C640.071 557.976 640.655 558.038 641.314 558.161C641.98 558.278 642.622 558.522 643.24 558.892C643.864 559.263 644.383 559.823 644.795 560.571C645.206 561.319 645.412 562.322 645.412 563.578V574H642.982V571.858H642.858C642.694 572.201 642.419 572.569 642.035 572.96C641.65 573.351 641.139 573.684 640.5 573.959C639.862 574.233 639.082 574.371 638.162 574.371ZM638.533 572.188C639.494 572.188 640.305 571.999 640.964 571.621C641.63 571.243 642.131 570.756 642.467 570.159C642.81 569.561 642.982 568.933 642.982 568.274V566.05C642.879 566.173 642.653 566.287 642.302 566.39C641.959 566.486 641.561 566.571 641.108 566.647C640.662 566.716 640.226 566.777 639.8 566.832C639.381 566.88 639.041 566.922 638.78 566.956C638.149 567.038 637.558 567.172 637.009 567.358C636.467 567.536 636.027 567.807 635.691 568.171C635.361 568.528 635.197 569.016 635.197 569.634C635.197 570.478 635.509 571.116 636.134 571.549C636.765 571.975 637.565 572.188 638.533 572.188ZM652.279 564.484V574H649.848V558.182H652.196V560.653H652.402C652.773 559.85 653.336 559.205 654.091 558.717C654.847 558.223 655.821 557.976 657.016 557.976C658.087 557.976 659.024 558.196 659.828 558.635C660.631 559.067 661.256 559.727 661.702 560.612C662.148 561.491 662.371 562.603 662.371 563.949V574H659.941V564.114C659.941 562.871 659.618 561.903 658.973 561.21C658.327 560.509 657.442 560.159 656.316 560.159C655.54 560.159 654.847 560.327 654.236 560.664C653.631 561 653.154 561.491 652.804 562.136C652.454 562.782 652.279 563.564 652.279 564.484ZM673.238 574.33C671.756 574.33 670.479 573.979 669.407 573.279C668.336 572.579 667.513 571.614 666.936 570.385C666.359 569.156 666.071 567.752 666.071 566.173C666.071 564.567 666.366 563.149 666.956 561.92C667.554 560.684 668.385 559.72 669.449 559.026C670.52 558.326 671.769 557.976 673.197 557.976C674.309 557.976 675.312 558.182 676.204 558.594C677.097 559.006 677.828 559.582 678.398 560.324C678.968 561.065 679.321 561.93 679.459 562.919H677.028C676.843 562.198 676.431 561.56 675.792 561.004C675.161 560.441 674.309 560.159 673.238 560.159C672.291 560.159 671.46 560.406 670.746 560.901C670.039 561.388 669.486 562.078 669.088 562.971C668.697 563.856 668.501 564.896 668.501 566.091C668.501 567.313 668.693 568.377 669.078 569.283C669.469 570.19 670.019 570.893 670.726 571.395C671.44 571.896 672.277 572.146 673.238 572.146C673.87 572.146 674.443 572.036 674.958 571.817C675.473 571.597 675.909 571.281 676.266 570.869C676.623 570.457 676.877 569.963 677.028 569.386H679.459C679.321 570.32 678.981 571.161 678.439 571.909C677.904 572.651 677.193 573.241 676.307 573.681C675.429 574.113 674.406 574.33 673.238 574.33ZM689.644 574.33C688.119 574.33 686.805 573.993 685.699 573.32C684.601 572.641 683.753 571.693 683.156 570.478C682.565 569.256 682.27 567.835 682.27 566.214C682.27 564.594 682.565 563.166 683.156 561.93C683.753 560.688 684.584 559.72 685.648 559.026C686.719 558.326 687.968 557.976 689.396 557.976C690.22 557.976 691.034 558.113 691.837 558.388C692.64 558.662 693.372 559.109 694.031 559.727C694.69 560.338 695.215 561.148 695.606 562.157C695.998 563.166 696.193 564.409 696.193 565.885V566.915H684V564.814H693.722C693.722 563.921 693.543 563.125 693.186 562.425C692.836 561.724 692.335 561.172 691.683 560.767C691.037 560.362 690.275 560.159 689.396 560.159C688.428 560.159 687.591 560.399 686.884 560.88C686.183 561.354 685.644 561.972 685.267 562.734C684.889 563.496 684.7 564.313 684.7 565.185V566.585C684.7 567.78 684.906 568.792 685.318 569.623C685.737 570.447 686.317 571.075 687.059 571.508C687.8 571.933 688.662 572.146 689.644 572.146C690.282 572.146 690.859 572.057 691.374 571.879C691.896 571.693 692.345 571.419 692.723 571.055C693.1 570.684 693.392 570.224 693.598 569.675L695.946 570.334C695.699 571.13 695.284 571.83 694.7 572.435C694.117 573.032 693.396 573.499 692.537 573.835C691.679 574.165 690.715 574.33 689.644 574.33ZM722.217 552.909H724.771V566.874C724.771 568.315 724.431 569.603 723.752 570.735C723.079 571.861 722.128 572.75 720.899 573.403C719.67 574.048 718.228 574.371 716.574 574.371C714.919 574.371 713.477 574.048 712.248 573.403C711.019 572.75 710.065 571.861 709.385 570.735C708.713 569.603 708.376 568.315 708.376 566.874V552.909H710.93V566.668C710.93 567.697 711.157 568.614 711.61 569.417C712.063 570.214 712.708 570.842 713.546 571.302C714.39 571.755 715.4 571.982 716.574 571.982C717.748 571.982 718.757 571.755 719.601 571.302C720.446 570.842 721.091 570.214 721.537 569.417C721.991 568.614 722.217 567.697 722.217 566.668V552.909ZM729.542 579.932V558.182H731.89V560.695H732.178C732.357 560.42 732.604 560.07 732.92 559.644C733.242 559.212 733.702 558.827 734.3 558.491C734.904 558.147 735.721 557.976 736.751 557.976C738.083 557.976 739.257 558.309 740.273 558.975C741.289 559.641 742.082 560.585 742.652 561.807C743.221 563.029 743.506 564.471 743.506 566.132C743.506 567.807 743.221 569.259 742.652 570.488C742.082 571.71 741.292 572.658 740.283 573.331C739.274 573.997 738.11 574.33 736.792 574.33C735.776 574.33 734.962 574.161 734.351 573.825C733.74 573.482 733.27 573.094 732.94 572.661C732.611 572.222 732.357 571.858 732.178 571.57H731.972V579.932H729.542ZM731.931 566.091C731.931 567.286 732.106 568.339 732.456 569.252C732.806 570.159 733.318 570.869 733.991 571.384C734.664 571.892 735.487 572.146 736.462 572.146C737.478 572.146 738.326 571.879 739.006 571.343C739.693 570.801 740.207 570.073 740.551 569.16C740.901 568.24 741.076 567.217 741.076 566.091C741.076 564.979 740.904 563.976 740.561 563.084C740.225 562.184 739.713 561.474 739.027 560.952C738.347 560.423 737.492 560.159 736.462 560.159C735.474 560.159 734.643 560.41 733.97 560.911C733.297 561.405 732.789 562.099 732.446 562.991C732.103 563.877 731.931 564.91 731.931 566.091ZM758.418 561.724L756.235 562.342C756.098 561.978 755.895 561.625 755.627 561.282C755.367 560.931 755.009 560.643 754.556 560.417C754.103 560.19 753.523 560.077 752.816 560.077C751.848 560.077 751.041 560.3 750.396 560.746C749.757 561.185 749.438 561.745 749.438 562.425C749.438 563.029 749.658 563.506 750.097 563.856C750.537 564.206 751.223 564.498 752.157 564.732L754.505 565.308C755.919 565.652 756.973 566.177 757.666 566.884C758.36 567.584 758.707 568.487 758.707 569.592C758.707 570.499 758.446 571.309 757.924 572.023C757.409 572.737 756.688 573.3 755.761 573.712C754.834 574.124 753.757 574.33 752.528 574.33C750.914 574.33 749.579 573.979 748.522 573.279C747.464 572.579 746.795 571.556 746.513 570.21L748.82 569.634C749.04 570.485 749.455 571.123 750.066 571.549C750.684 571.975 751.491 572.188 752.486 572.188C753.619 572.188 754.519 571.947 755.185 571.467C755.857 570.979 756.194 570.396 756.194 569.716C756.194 569.167 756.002 568.707 755.617 568.336C755.233 567.958 754.642 567.677 753.846 567.491L751.209 566.874C749.761 566.53 748.697 565.998 748.017 565.277C747.344 564.55 747.008 563.64 747.008 562.548C747.008 561.656 747.258 560.866 747.759 560.18C748.268 559.493 748.958 558.954 749.829 558.563C750.708 558.172 751.704 557.976 752.816 557.976C754.381 557.976 755.61 558.319 756.503 559.006C757.402 559.692 758.041 560.598 758.418 561.724ZM775.176 574.371C774.174 574.371 773.264 574.182 772.447 573.804C771.63 573.42 770.981 572.867 770.501 572.146C770.02 571.419 769.78 570.54 769.78 569.51C769.78 568.604 769.958 567.869 770.315 567.306C770.672 566.736 771.15 566.29 771.747 565.967C772.344 565.645 773.003 565.404 773.724 565.246C774.452 565.082 775.183 564.951 775.918 564.855C776.879 564.732 777.658 564.639 778.255 564.577C778.859 564.508 779.299 564.395 779.574 564.237C779.855 564.079 779.996 563.805 779.996 563.413V563.331C779.996 562.315 779.718 561.525 779.162 560.962C778.612 560.399 777.778 560.118 776.659 560.118C775.499 560.118 774.589 560.372 773.93 560.88C773.271 561.388 772.808 561.93 772.54 562.507L770.233 561.683C770.645 560.722 771.194 559.974 771.881 559.438C772.574 558.896 773.329 558.518 774.146 558.305C774.97 558.086 775.78 557.976 776.577 557.976C777.085 557.976 777.668 558.038 778.327 558.161C778.993 558.278 779.635 558.522 780.253 558.892C780.878 559.263 781.396 559.823 781.808 560.571C782.22 561.319 782.426 562.322 782.426 563.578V574H779.996V571.858H779.872C779.707 572.201 779.433 572.569 779.048 572.96C778.664 573.351 778.152 573.684 777.514 573.959C776.875 574.233 776.096 574.371 775.176 574.371ZM775.547 572.188C776.508 572.188 777.318 571.999 777.977 571.621C778.643 571.243 779.144 570.756 779.481 570.159C779.824 569.561 779.996 568.933 779.996 568.274V566.05C779.893 566.173 779.666 566.287 779.316 566.39C778.973 566.486 778.575 566.571 778.121 566.647C777.675 566.716 777.239 566.777 776.814 566.832C776.395 566.88 776.055 566.922 775.794 566.956C775.162 567.038 774.572 567.172 774.023 567.358C773.48 567.536 773.041 567.807 772.705 568.171C772.375 568.528 772.21 569.016 772.21 569.634C772.21 570.478 772.523 571.116 773.147 571.549C773.779 571.975 774.579 572.188 775.547 572.188ZM789.293 564.484V574H786.862V558.182H789.21V560.653H789.416C789.787 559.85 790.35 559.205 791.105 558.717C791.86 558.223 792.835 557.976 794.03 557.976C795.101 557.976 796.038 558.196 796.841 558.635C797.644 559.067 798.269 559.727 798.715 560.612C799.162 561.491 799.385 562.603 799.385 563.949V574H796.954V564.114C796.954 562.871 796.632 561.903 795.986 561.21C795.341 560.509 794.455 560.159 793.329 560.159C792.554 560.159 791.86 560.327 791.249 560.664C790.645 561 790.168 561.491 789.818 562.136C789.468 562.782 789.293 563.564 789.293 564.484ZM809.799 574.33C808.481 574.33 807.317 573.997 806.308 573.331C805.299 572.658 804.509 571.71 803.939 570.488C803.369 569.259 803.085 567.807 803.085 566.132C803.085 564.471 803.369 563.029 803.939 561.807C804.509 560.585 805.302 559.641 806.318 558.975C807.334 558.309 808.508 557.976 809.84 557.976C810.87 557.976 811.684 558.147 812.281 558.491C812.885 558.827 813.345 559.212 813.661 559.644C813.984 560.07 814.234 560.42 814.413 560.695H814.619V552.909H817.049V574H814.701V571.57H814.413C814.234 571.858 813.98 572.222 813.651 572.661C813.321 573.094 812.851 573.482 812.24 573.825C811.629 574.161 810.815 574.33 809.799 574.33ZM810.129 572.146C811.103 572.146 811.927 571.892 812.6 571.384C813.273 570.869 813.784 570.159 814.135 569.252C814.485 568.339 814.66 567.286 814.66 566.091C814.66 564.91 814.488 563.877 814.145 562.991C813.802 562.099 813.294 561.405 812.621 560.911C811.948 560.41 811.117 560.159 810.129 560.159C809.099 560.159 808.241 560.423 807.554 560.952C806.874 561.474 806.363 562.184 806.02 563.084C805.683 563.976 805.515 564.979 805.515 566.091C805.515 567.217 805.687 568.24 806.03 569.16C806.38 570.073 806.895 570.801 807.575 571.343C808.261 571.879 809.112 572.146 810.129 572.146ZM836.832 574H830.324V552.909H837.12C839.166 552.909 840.917 553.331 842.373 554.176C843.828 555.013 844.944 556.218 845.719 557.79C846.495 559.356 846.883 561.23 846.883 563.413C846.883 565.61 846.492 567.502 845.709 569.088C844.926 570.667 843.787 571.882 842.29 572.733C840.793 573.578 838.974 574 836.832 574ZM832.877 571.734H836.667C838.411 571.734 839.856 571.398 841.003 570.725C842.149 570.052 843.004 569.095 843.567 567.852C844.13 566.609 844.412 565.13 844.412 563.413C844.412 561.711 844.134 560.245 843.577 559.016C843.021 557.78 842.191 556.833 841.085 556.174C839.98 555.508 838.603 555.175 836.956 555.175H832.877V571.734ZM857.264 574.33C855.836 574.33 854.583 573.99 853.505 573.31C852.434 572.63 851.596 571.679 850.992 570.457C850.395 569.235 850.096 567.807 850.096 566.173C850.096 564.526 850.395 563.087 850.992 561.858C851.596 560.629 852.434 559.675 853.505 558.995C854.583 558.316 855.836 557.976 857.264 557.976C858.692 557.976 859.941 558.316 861.012 558.995C862.09 559.675 862.928 560.629 863.525 561.858C864.129 563.087 864.431 564.526 864.431 566.173C864.431 567.807 864.129 569.235 863.525 570.457C862.928 571.679 862.09 572.63 861.012 573.31C859.941 573.99 858.692 574.33 857.264 574.33ZM857.264 572.146C858.349 572.146 859.241 571.868 859.941 571.312C860.642 570.756 861.16 570.025 861.496 569.119C861.833 568.212 862.001 567.231 862.001 566.173C862.001 565.116 861.833 564.131 861.496 563.218C861.16 562.305 860.642 561.567 859.941 561.004C859.241 560.441 858.349 560.159 857.264 560.159C856.179 560.159 855.287 560.441 854.586 561.004C853.886 561.567 853.368 562.305 853.031 563.218C852.695 564.131 852.527 565.116 852.527 566.173C852.527 567.231 852.695 568.212 853.031 569.119C853.368 570.025 853.886 570.756 854.586 571.312C855.287 571.868 856.179 572.146 857.264 572.146ZM871.187 574L866.368 558.182H868.922L872.341 570.293H872.505L875.883 558.182H878.478L881.815 570.251H881.98L885.399 558.182H887.953L883.133 574H880.744L877.284 561.848H877.037L873.576 574H871.187ZM893.596 564.484V574H891.166V558.182H893.514V560.653H893.72C894.091 559.85 894.654 559.205 895.409 558.717C896.164 558.223 897.139 557.976 898.333 557.976C899.404 557.976 900.342 558.196 901.145 558.635C901.948 559.067 902.573 559.727 903.019 560.612C903.465 561.491 903.689 562.603 903.689 563.949V574H901.258V564.114C901.258 562.871 900.935 561.903 900.29 561.21C899.645 560.509 898.759 560.159 897.633 560.159C896.857 560.159 896.164 560.327 895.553 560.664C894.949 561 894.472 561.491 894.121 562.136C893.771 562.782 893.596 563.564 893.596 564.484ZM919.334 561.724L917.151 562.342C917.014 561.978 916.811 561.625 916.543 561.282C916.283 560.931 915.926 560.643 915.472 560.417C915.019 560.19 914.439 560.077 913.732 560.077C912.764 560.077 911.957 560.3 911.312 560.746C910.673 561.185 910.354 561.745 910.354 562.425C910.354 563.029 910.574 563.506 911.013 563.856C911.453 564.206 912.139 564.498 913.073 564.732L915.421 565.308C916.835 565.652 917.889 566.177 918.582 566.884C919.276 567.584 919.623 568.487 919.623 569.592C919.623 570.499 919.362 571.309 918.84 572.023C918.325 572.737 917.604 573.3 916.677 573.712C915.75 574.124 914.673 574.33 913.444 574.33C911.83 574.33 910.495 573.979 909.438 573.279C908.38 572.579 907.711 571.556 907.429 570.21L909.736 569.634C909.956 570.485 910.371 571.123 910.982 571.549C911.6 571.975 912.407 572.188 913.402 572.188C914.535 572.188 915.435 571.947 916.101 571.467C916.773 570.979 917.11 570.396 917.11 569.716C917.11 569.167 916.918 568.707 916.533 568.336C916.149 567.958 915.558 567.677 914.762 567.491L912.125 566.874C910.677 566.53 909.613 565.998 908.933 565.277C908.26 564.55 907.924 563.64 907.924 562.548C907.924 561.656 908.174 560.866 908.676 560.18C909.184 559.493 909.874 558.954 910.745 558.563C911.624 558.172 912.62 557.976 913.732 557.976C915.297 557.976 916.526 558.319 917.419 559.006C918.318 559.692 918.957 560.598 919.334 561.724ZM925.052 574.165C924.544 574.165 924.108 573.983 923.744 573.619C923.381 573.255 923.199 572.819 923.199 572.311C923.199 571.803 923.381 571.367 923.744 571.003C924.108 570.639 924.544 570.457 925.052 570.457C925.56 570.457 925.996 570.639 926.36 571.003C926.724 571.367 926.906 571.803 926.906 572.311C926.906 572.647 926.82 572.956 926.649 573.238C926.484 573.519 926.261 573.746 925.979 573.918C925.705 574.082 925.396 574.165 925.052 574.165Z" fill="#201E44"/>
</g>
<defs>
<clipPath id="clip0_54_2">
<rect width="1280" height="832" fill="white"/>
</clipPath>
</defs>
</svg>
